<svg width="36" height="36" viewBox="0 0 36 36" fill="none" xmlns="http://www.w3.org/2000/svg">
<g clip-path="url(#clip0_474_899)">
<path d="M0 27C0 28.0609 0.421427 29.0783 1.17157 29.8284C1.92172 30.5786 2.93913 31 4 31H32C33.0609 31 34.0783 30.5786 34.8284 29.8284C35.5786 29.0783 36 28.0609 36 27V22H0V27Z" fill="#138808"/>
<path d="M36 14V9C36 7.93913 35.5786 6.92172 34.8284 6.17157C34.0783 5.42143 33.0609 5 32 5H4C2.93913 5 1.92172 5.42143 1.17157 6.17157C0.421427 6.92172 0 7.93913 0 9L0 14H36Z" fill="#FF9933"/>
<path d="M0 13.667H36V22.334H0V13.667Z" fill="#F7F7F7"/>
<path d="M18 22C20.2091 22 22 20.2091 22 18C22 15.7909 20.2091 14 18 14C15.7909 14 14 15.7909 14 18C14 20.2091 15.7909 22 18 22Z" fill="#000080"/>
<path d="M18 21.375C19.864 21.375 21.375 19.864 21.375 18C21.375 16.136 19.864 14.625 18 14.625C16.136 14.625 14.625 16.136 14.625 18C14.625 19.864 16.136 21.375 18 21.375Z" fill="#F7F7F7"/>
<path d="M18.0998 16.75L17.9998 17.4L17.8998 16.75L17.9998 14.8L18.0998 16.75ZM17.1718 14.909L17.5798 16.818L17.8448 17.42L17.7728 16.767L17.1718 14.909ZM16.3998 15.229L17.2878 16.967L17.6998 17.48L17.4618 16.867L16.3998 15.229ZM15.7368 15.737L17.0448 17.187L17.5758 17.576L17.1868 17.045L15.7368 15.737ZM15.2288 16.4L16.8668 17.462L17.4798 17.7L16.9668 17.288L15.2288 16.4ZM14.9088 17.172L16.7668 17.773L17.4198 17.845L16.8178 17.58L14.9088 17.172ZM14.7998 18L16.7498 18.1L17.3998 18L16.7498 17.9L14.7998 18ZM14.9088 18.828L16.8178 18.42L17.4198 18.155L16.7668 18.227L14.9088 18.828ZM15.2288 19.6L16.9668 18.712L17.4798 18.3L16.8668 18.538L15.2288 19.6ZM15.7368 20.263L17.1868 18.955L17.5758 18.424L17.0448 18.813L15.7368 20.263ZM16.3998 20.771L17.4618 19.133L17.6998 18.52L17.2878 19.033L16.3998 20.771ZM17.1718 21.091L17.7728 19.233L17.8448 18.58L17.5798 19.182L17.1718 21.091ZM17.9998 21.2L18.0998 19.25L17.9998 18.6L17.8998 19.25L17.9998 21.2ZM18.8278 21.091L18.4198 19.182L18.1548 18.58L18.2268 19.233L18.8278 21.091ZM19.5998 20.771L18.7118 19.033L18.2998 18.52L18.5378 19.133L19.5998 20.771ZM20.2628 20.263L18.9548 18.813L18.4238 18.424L18.8128 18.955L20.2628 20.263ZM20.7708 19.6L19.1328 18.538L18.5198 18.3L19.0328 18.712L20.7708 19.6ZM21.0908 18.828L19.2328 18.227L18.5798 18.155L19.1818 18.42L21.0908 18.828ZM21.1998 18L19.2498 17.9L18.5998 18L19.2498 18.1L21.1998 18ZM21.0908 17.172L19.1818 17.58L18.5798 17.845L19.2328 17.773L21.0908 17.172ZM20.7708 16.4L19.0328 17.288L18.5198 17.7L19.1328 17.462L20.7708 16.4ZM20.2628 15.737L18.8128 17.045L18.4238 17.576L18.9548 17.187L20.2628 15.737ZM19.5998 15.229L18.5378 16.867L18.2998 17.48L18.7118 16.967L19.5998 15.229ZM18.8278 14.909L18.2268 16.767L18.1548 17.42L18.4198 16.818L18.8278 14.909Z" fill="#6666B3"/>
<path d="M17.5599 14.859C17.6703 14.859 17.7599 14.7694 17.7599 14.659C17.7599 14.5485 17.6703 14.459 17.5599 14.459C17.4494 14.459 17.3599 14.5485 17.3599 14.659C17.3599 14.7694 17.4494 14.859 17.5599 14.859Z" fill="#000080"/>
<path d="M16.7098 15.087C16.8202 15.087 16.9098 14.9975 16.9098 14.887C16.9098 14.7766 16.8202 14.687 16.7098 14.687C16.5993 14.687 16.5098 14.7766 16.5098 14.887C16.5098 14.9975 16.5993 15.087 16.7098 15.087Z" fill="#000080"/>
<path d="M15.948 15.526C16.0585 15.526 16.148 15.4364 16.148 15.326C16.148 15.2155 16.0585 15.126 15.948 15.126C15.8376 15.126 15.748 15.2155 15.748 15.326C15.748 15.4364 15.8376 15.526 15.948 15.526Z" fill="#000080"/>
<path d="M15.326 16.148C15.4364 16.148 15.526 16.0585 15.526 15.948C15.526 15.8376 15.4364 15.748 15.326 15.748C15.2155 15.748 15.126 15.8376 15.126 15.948C15.126 16.0585 15.2155 16.148 15.326 16.148Z" fill="#000080"/>
<path d="M14.887 16.91C14.9975 16.91 15.087 16.8205 15.087 16.71C15.087 16.5996 14.9975 16.51 14.887 16.51C14.7766 16.51 14.687 16.5996 14.687 16.71C14.687 16.8205 14.7766 16.91 14.887 16.91Z" fill="#000080"/>
<path d="M14.659 17.7599C14.7694 17.7599 14.859 17.6703 14.859 17.5599C14.859 17.4494 14.7694 17.3599 14.659 17.3599C14.5485 17.3599 14.459 17.4494 14.459 17.5599C14.459 17.6703 14.5485 17.7599 14.659 17.7599Z" fill="#000080"/>
<path d="M14.659 18.64C14.7694 18.64 14.859 18.5504 14.859 18.44C14.859 18.3295 14.7694 18.24 14.659 18.24C14.5485 18.24 14.459 18.3295 14.459 18.44C14.459 18.5504 14.5485 18.64 14.659 18.64Z" fill="#000080"/>
<path d="M14.887 19.4901C14.9975 19.4901 15.087 19.4005 15.087 19.2901C15.087 19.1796 14.9975 19.0901 14.887 19.0901C14.7766 19.0901 14.687 19.1796 14.687 19.2901C14.687 19.4005 14.7766 19.4901 14.887 19.4901Z" fill="#000080"/>
<path d="M15.326 20.2521C15.4364 20.2521 15.526 20.1625 15.526 20.0521C15.526 19.9416 15.4364 19.8521 15.326 19.8521C15.2155 19.8521 15.126 19.9416 15.126 20.0521C15.126 20.1625 15.2155 20.2521 15.326 20.2521Z" fill="#000080"/>
<path d="M15.948 20.8739C16.0585 20.8739 16.148 20.7843 16.148 20.6739C16.148 20.5634 16.0585 20.4739 15.948 20.4739C15.8376 20.4739 15.748 20.5634 15.748 20.6739C15.748 20.7843 15.8376 20.8739 15.948 20.8739Z" fill="#000080"/>
<path d="M16.7098 21.3131C16.8202 21.3131 16.9098 21.2235 16.9098 21.1131C16.9098 21.0026 16.8202 20.9131 16.7098 20.9131C16.5993 20.9131 16.5098 21.0026 16.5098 21.1131C16.5098 21.2235 16.5993 21.3131 16.7098 21.3131Z" fill="#000080"/>
<path d="M17.5599 21.5409C17.6703 21.5409 17.7599 21.4513 17.7599 21.3409C17.7599 21.2304 17.6703 21.1409 17.5599 21.1409C17.4494 21.1409 17.3599 21.2304 17.3599 21.3409C17.3599 21.4513 17.4494 21.5409 17.5599 21.5409Z" fill="#000080"/>
<path d="M18.4397 21.5409C18.5502 21.5409 18.6397 21.4513 18.6397 21.3409C18.6397 21.2304 18.5502 21.1409 18.4397 21.1409C18.3293 21.1409 18.2397 21.2304 18.2397 21.3409C18.2397 21.4513 18.3293 21.5409 18.4397 21.5409Z" fill="#000080"/>
<path d="M19.2898 21.3131C19.4003 21.3131 19.4898 21.2235 19.4898 21.1131C19.4898 21.0026 19.4003 20.9131 19.2898 20.9131C19.1794 20.9131 19.0898 21.0026 19.0898 21.1131C19.0898 21.2235 19.1794 21.3131 19.2898 21.3131Z" fill="#000080"/>
<path d="M20.0521 20.8739C20.1625 20.8739 20.2521 20.7843 20.2521 20.6739C20.2521 20.5634 20.1625 20.4739 20.0521 20.4739C19.9416 20.4739 19.8521 20.5634 19.8521 20.6739C19.8521 20.7843 19.9416 20.8739 20.0521 20.8739Z" fill="#000080"/>
<path d="M20.6741 20.2521C20.7846 20.2521 20.8741 20.1625 20.8741 20.0521C20.8741 19.9416 20.7846 19.8521 20.6741 19.8521C20.5637 19.8521 20.4741 19.9416 20.4741 20.0521C20.4741 20.1625 20.5637 20.2521 20.6741 20.2521Z" fill="#000080"/>
<path d="M21.1131 19.4901C21.2235 19.4901 21.3131 19.4005 21.3131 19.2901C21.3131 19.1796 21.2235 19.0901 21.1131 19.0901C21.0026 19.0901 20.9131 19.1796 20.9131 19.2901C20.9131 19.4005 21.0026 19.4901 21.1131 19.4901Z" fill="#000080"/>
<path d="M21.3411 18.64C21.4516 18.64 21.5411 18.5504 21.5411 18.44C21.5411 18.3295 21.4516 18.24 21.3411 18.24C21.2307 18.24 21.1411 18.3295 21.1411 18.44C21.1411 18.5504 21.2307 18.64 21.3411 18.64Z" fill="#000080"/>
<path d="M21.3411 17.7599C21.4516 17.7599 21.5411 17.6703 21.5411 17.5599C21.5411 17.4494 21.4516 17.3599 21.3411 17.3599C21.2307 17.3599 21.1411 17.4494 21.1411 17.5599C21.1411 17.6703 21.2307 17.7599 21.3411 17.7599Z" fill="#000080"/>
<path d="M21.1131 16.91C21.2235 16.91 21.3131 16.8205 21.3131 16.71C21.3131 16.5996 21.2235 16.51 21.1131 16.51C21.0026 16.51 20.9131 16.5996 20.9131 16.71C20.9131 16.8205 21.0026 16.91 21.1131 16.91Z" fill="#000080"/>
<path d="M20.6741 16.148C20.7846 16.148 20.8741 16.0585 20.8741 15.948C20.8741 15.8376 20.7846 15.748 20.6741 15.748C20.5637 15.748 20.4741 15.8376 20.4741 15.948C20.4741 16.0585 20.5637 16.148 20.6741 16.148Z" fill="#000080"/>
<path d="M20.0521 15.526C20.1625 15.526 20.2521 15.4364 20.2521 15.326C20.2521 15.2155 20.1625 15.126 20.0521 15.126C19.9416 15.126 19.8521 15.2155 19.8521 15.326C19.8521 15.4364 19.9416 15.526 20.0521 15.526Z" fill="#000080"/>
<path d="M19.2898 15.087C19.4003 15.087 19.4898 14.9975 19.4898 14.887C19.4898 14.7766 19.4003 14.687 19.2898 14.687C19.1794 14.687 19.0898 14.7766 19.0898 14.887C19.0898 14.9975 19.1794 15.087 19.2898 15.087Z" fill="#000080"/>
<path d="M18.4397 14.859C18.5502 14.859 18.6397 14.7694 18.6397 14.659C18.6397 14.5485 18.5502 14.459 18.4397 14.459C18.3293 14.459 18.2397 14.5485 18.2397 14.659C18.2397 14.7694 18.3293 14.859 18.4397 14.859Z" fill="#000080"/>
<path d="M18.0001 18.9001C18.4972 18.9001 18.9001 18.4972 18.9001 18.0001C18.9001 17.503 18.4972 17.1001 18.0001 17.1001C17.503 17.1001 17.1001 17.503 17.1001 18.0001C17.1001 18.4972 17.503 18.9001 18.0001 18.9001Z" fill="#000080"/>
</g>
<defs>
<clipPath id="clip0_474_899">
<rect width="36" height="36" fill="white"/>
</clipPath>
</defs>
</svg>
