<?xml version="1.0" encoding="utf-8"?>
<!-- Generator: Adobe Illustrator 28.1.0, SVG Export Plug-In . SVG Version: 6.00 Build 0)  -->
<svg version="1.1" xmlns="http://www.w3.org/2000/svg" xmlns:xlink="http://www.w3.org/1999/xlink" x="0px" y="0px"
	 viewBox="0 0 539.08 456.45" style="enable-background:new 0 0 539.08 456.45;" xml:space="preserve">
<style type="text/css">
	.st0{fill-rule:evenodd;clip-rule:evenodd;fill:#FFF2E3;}
	.st1{fill:#1D6AEE;}
	.st2{fill:#0B0B0B;}
</style>
<g id="Background">
</g>
<g id="Objects">
	<g>
		<path class="st1" d="M205.4,343.73c-19.96-13.33-25.86-35.78-15.76-55.93c7.1-14.16,18.09-25.02,29.81-35.24
			c11.69-10.2,24.28-19.22,37.12-27.89c0.9-0.61,1.69-1.71,3.35-1.01c-0.28,1.92-1.93,2.87-3.11,4.05
			c-8.6,8.63-16.38,17.95-23.62,27.74c-1.63,2.2-2.63,4.56-3.18,7.22c-0.63,2.99-0.43,5.7,2.24,7.62c2.79,2.01,5.54,1.58,8.34-0.22
			c10.35-6.67,21.08-12.82,31.01-20.08c5.46-3.99,9.35-3.7,14.56-0.09c9.71,6.73,19.84,12.84,29.73,19.3
			c3.25,2.12,6.42,3.7,10.02,0.92c3.41-2.63,2.58-6.1,1.72-9.53c-3.32-13.23-6.53-26.48-10.07-39.65c-0.8-2.96-0.1-4.44,2.21-6.22
			c10.5-8.11,20.8-16.48,31.25-24.66c2.67-2.09,4.68-4.36,3.81-7.99c-0.88-3.67-3.7-4.87-7.08-5.1
			c-13.78-0.91-27.56-1.97-41.35-2.56c-3.7-0.16-5.17-1.62-6.35-4.8c-4.55-12.32-9.39-24.54-14.01-36.84
			c-1.26-3.36-3.01-6.15-6.91-6.21c-4.18-0.07-5.91,2.92-7.23,6.44c-4.55,12.15-9.43,24.19-13.78,36.41
			c-1.36,3.83-3.35,4.93-7.22,5.07c-12.81,0.49-25.6,1.37-38.4,2.18c-1.81,0.11-3.67,0.39-5.39,0.95c-3.76,1.23-5.74,7.15-2.84,9.68
			c7.54,6.58,15.49,12.69,23.42,19.1c-7.2,4.19-14.84,8.42-22.27,12.99c-14.59,8.97-28.15,19.26-39.26,32.45
			c-7.97,9.46-13.74,19.99-15.28,32.52c-1.29,10.55,1.28,20.13,6.96,28.98c0.8,1.25,1.72,2.46,2.32,3.8
			c0.26,0.58,1.31,1.34,0.31,2.12c-0.8,0.62-1.65,0.9-2.69,0.21c-17.77-11.9-32.73-32.56-18.63-55.85
			c4.09-6.76,9.06-12.85,15.22-17.73c3.17-2.51,3.99-5.11,3.84-8.92c-2.14-55.74-4.15-111.48-6.18-167.22
			c-0.26-7.17-0.19-7.29,6.9-6.21c42.71,6.52,81.8,21.85,116.19,48.32c3.17,2.44,4.9,2.25,7.94-0.07
			c30.86-23.51,65.53-38.57,103.52-46.1c4.89-0.97,9.87-1.47,14.78-2.34c3.63-0.64,4.89,0.32,4.7,4.34
			c-0.95,20.96-1.58,41.94-2.34,62.91c-1.31,36.28-2.62,72.57-3.95,108.85c-0.32,8.65-0.81,17.3-0.96,25.96
			c-0.05,2.95-1.04,3.81-3.96,4.27c-41.19,6.6-78.64,22.14-111.75,47.67c-3.37,2.6-5.26,2.19-8.42-0.24
			c-19.23-14.88-40.45-26.22-63.15-34.89c-2.79-1.06-4.6-1.05-6.01,1.9c-2.08,4.35-4.63,8.48-6.59,12.87
			c-5.84,13.06-4.98,25.9,1.82,38.4C202.06,337.82,203.43,340.21,205.4,343.73z"/>
		<path class="st2" d="M307.42,406.54c12.99,8.84,15.93,24.32,6.69,35.91c-5.04,6.33-12.32,8.56-19.91,8.81
			c-13.48,0.46-26.98,0.15-40.48,0.27c-2.1,0.02-2.89-0.51-2.88-2.76c0.07-23.99-0.01-47.98,0.09-71.97
			c0.02-4.65,3.24-8.5,7.54-8.48c13.31,0.04,26.65-1.07,39.92,0.61c8.63,1.09,15.31,5.2,17.43,14.06
			c2.17,9.03,0.74,17.27-7.95,22.74C307.64,405.87,307.57,406.27,307.42,406.54z M279.56,436.82c4.81-0.1,9.66,0.42,14.4-0.77
			c5.38-1.35,7.88-4.81,7.82-10.57c-0.06-5.8-2.61-8.96-8.11-10.27c-5.43-1.3-10.93-0.61-16.4-0.67c-10.09-0.1-10.1-0.03-10.1,10.04
			C267.18,436.82,267.18,436.82,279.56,436.82z M279.59,400.63c0-0.1,0.01-0.2,0.01-0.29c3.32,0,6.66,0.17,9.97-0.04
			c6.42-0.39,9.89-3.6,9.89-8.89c0-5.38-3.34-8.54-9.89-8.84c-5.48-0.25-11,0.24-16.45-0.19c-4.7-0.38-6.75,0.85-5.99,5.86
			c0.59,3.89-1.71,9.26,0.92,11.42C270.49,401.68,275.63,400.44,279.59,400.63z"/>
		<path class="st1" d="M35.64,453.61c-9.21-0.09-17.35-1.15-24.46-6.34c-6.2-4.54-9.09-10.81-10.25-18.15
			c-0.41-2.63,0.5-3.72,3.15-3.58c1.99,0.1,4.01,0.2,5.99-0.02c4.62-0.51,8.22-0.14,9.39,5.66c0.68,3.36,3.98,5.23,7.2,6.42
			c5.8,2.15,11.75,2.19,17.67,0.66c3.98-1.03,6.84-3.46,7.5-7.75c0.68-4.39-2.11-6.82-5.44-8.66c-8.13-4.49-17.29-5.84-26.11-8.12
			c-11.32-2.93-17.5-9.47-18.33-20.04c-0.96-12.29,4.06-21.31,15.15-25.27c11.64-4.15,23.56-4.39,35.03,0.87
			c8.27,3.8,12.16,10.99,13.53,19.71c0.24,1.55,0.45,3.17-1.87,3.16c-6.39-0.01-12.7,1.08-16.84-6.42
			c-3.72-6.74-18.29-8.15-24.46-3.37c-5.6,4.33-4.86,10.91,1.71,14.44c6.65,3.57,14.35,3.68,21.31,6.28
			c1.71,0.64,3.56,0.88,5.3,1.42c12.57,3.93,18.04,10.84,17.92,22.58c-0.13,12.55-6.57,21.07-18.56,24.73
			C45.16,453.34,40.02,453.49,35.64,453.61z"/>
		<path class="st2" d="M497.88,410.93c6.7-7.69,12.65-14.37,18.41-21.2c1.52-1.8,3.01-2.72,5.44-2.64
			c5.28,0.18,10.57,0.06,17.02,0.06c-7.06,7.59-13.28,14.59-19.87,21.22c-2.6,2.61-2.61,4.49-0.79,7.5
			c7.02,11.59,13.78,23.34,20.99,35.65c-6.47,0-12.25-0.08-18.02,0.04c-2.1,0.05-2.85-1.12-3.67-2.68
			c-3.11-5.87-6.3-11.69-9.5-17.51c-0.88-1.6-1.81-3.19-2.89-4.65c-1.2-1.64-2.6-3.16-4.99-2.28c-2.18,0.81-2.15,2.69-2.15,4.56
			c0.01,6.49-0.09,12.99,0.06,19.48c0.05,2.32-0.49,3.25-2.98,3.11c-4.47-0.25-10.11,1.4-13.11-0.75c-2.79-2-0.85-8.01-0.86-12.24
			c-0.09-23.29-0.04-46.58-0.04-70.28c3.62,0.73,6.9,1.37,10.48,0.35c3.07-0.88,6.4,3.82,6.44,8.58c0.08,9.65,0.03,19.31,0.03,28.96
			C497.88,407.34,497.88,408.48,497.88,410.93z"/>
		<path class="st1" d="M179.95,417.33c-0.2,4.32,0.3,9.8-0.58,15.27c-1.42,8.89-6.39,15-14.69,17.85
			c-8.59,2.95-17.56,3.76-26.46,1.04c-8.51-2.6-12.52-8.11-13.04-17.38c-0.55-9.85,2.67-15.38,11.04-19.19
			c5.08-2.32,10.54-2.92,15.96-3.71c2.98-0.43,5.94-0.99,8.62-2.35c1.65-0.83,3.04-2.14,2.99-4.26c-0.05-2.06-1.21-3.65-3.04-4.17
			c-5.64-1.6-11.35-2.93-16.45,1.59c-3.31,2.94-7.3,1.03-10.95,1.36c-1.99,0.18-4.94,1.21-5.92-0.82c-0.95-1.98,0.7-4.47,1.91-6.44
			c2.81-4.58,6.86-7.63,12.04-9.1c8.74-2.47,17.5-2.03,26.08,0.55c8.38,2.52,12.35,8.24,12.48,17.11
			C180,408.52,179.95,412.35,179.95,417.33z M163.99,425.08c0.09-5.29,0.06-5.44-2.05-4.9c-5.13,1.3-10.31,2.51-15.32,4.2
			c-4.45,1.5-6.55,5.65-5.4,9.84c1.22,4.47,4.7,5.74,8.83,5.63C158.67,439.61,163.83,434.08,163.99,425.08z"/>
		<path class="st2" d="M406.72,418.85c0.18-10.39,1.86-20.36,10.57-27.32c16.46-13.16,41.14-5.25,46.93,14.94
			c3.13,10.94,2.51,21.75-2.46,32.05c-5.06,10.46-15.6,15.19-29.94,13.85c-11.64-1.08-19.98-7.88-23.11-18.76
			C407.31,428.79,406.5,423.9,406.72,418.85z M422.93,418.68c0.1,1.99,0.11,3.99,0.34,5.97c0.2,1.64,0.59,3.27,1.03,4.87
			c1.61,5.82,5.36,9.17,10.69,9.65c5.31,0.48,10.06-2.07,12.28-7.47c3.2-7.78,3.57-15.86,0.49-23.8c-2.08-5.35-6.99-8.58-11.86-8.34
			c-5.41,0.26-9.83,3.78-11.72,9.3C423.08,412.04,422.85,415.33,422.93,418.68z"/>
		<path class="st2" d="M333.72,419c0.3-10.53,1.88-20.7,10.89-27.68c16.52-12.8,40.67-4.97,46.63,15.01
			c2.84,9.52,2.55,19.07-0.82,28.39c-4.7,12.98-15.14,18.97-30.42,17.79c-13.5-1.04-22.54-8.95-25.13-22.11
			C334.12,426.65,333.47,422.87,333.72,419z M350.08,418.47c-0.28,3.48,0.26,6.93,1.08,10.33c1.54,6.42,5.43,10.01,11.12,10.38
			c5.88,0.39,10.58-2.83,12.69-9.1c2.33-6.94,2.64-14.06,0.31-21.05c-1.75-5.23-5.31-9.05-11.07-9.4c-4.91-0.29-9.1,1.76-11.64,6.27
			C350.38,409.8,349.75,414.04,350.08,418.47z"/>
		<path class="st1" d="M274.74,103.53c-5.63-2.17-9.99-6.36-14.96-9.58c-28.62-18.5-59.74-30.53-93.25-36.32
			c-3.91-0.68-4.43-2.18-4.02-5.58c0.68-5.61,1.25-11.28,1.24-16.92c-0.01-4.41,1.08-5.37,5.41-3.99
			c29.69,9.49,56.58,23.96,79.99,44.64c9.47,8.36,18.62,17.05,25.84,27.53L274.74,103.53z"/>
		<path class="st1" d="M281.91,104.17c17.25-21.7,37.44-39.01,60.8-52.65c14.85-8.67,30.52-15.48,46.99-20.48
			c3.35-1.02,4.33-0.37,4.42,3.15c0.16,6.15,0.56,12.32,1.33,18.42c0.42,3.25-0.4,4.35-3.63,4.86
			c-21.97,3.49-42.96,10.23-63.11,19.6c-14.98,6.97-29.13,15.36-42.48,25.08C285.19,102.92,284.37,104.09,281.91,104.17z"/>
		<path class="st1" d="M86.16,405.76c-0.01-10.98,0.13-21.96-0.08-32.93c-0.07-3.56,0.67-4.92,4.61-4.83
			c10.28,0.25,12.36,2.07,12.36,12.18c0,6.72,0,6.86,6.67,7.01c2.63,0.06,3.5,0.87,3.34,3.46c-0.27,4.42-2.41,7.24-6.7,8.1
			c-2.27,0.45-3.41,1.07-3.37,3.73c0.17,10.48,0.1,20.96,0.07,31.43c-0.01,3.56,1.77,5.46,5.19,5.1c4.12-0.43,5.35,1.28,4.81,5.06
			c-0.16,1.14-0.18,2.35,0,3.48c0.56,3.63-1.14,4.67-4.48,4.41c-3.64-0.28-7.31-0.16-10.96-0.44c-8.55-0.67-11.35-3.63-11.43-12.35
			C86.09,428.05,86.17,416.9,86.16,405.76z"/>
		<path class="st1" d="M282.85,92.44c20.21-37.29,46.95-67.25,84.74-87.4c1.43,7.08,2.71,13.57,4.05,20.05
			c0.62,3.01-1.92,3.18-3.57,3.85c-17.69,7.14-33.79,16.99-48.7,28.79c-11.65,9.22-22.06,19.72-31.5,31.2
			c-0.94,1.14-1.99,2.2-3.05,3.24C284.64,92.35,284.19,92.27,282.85,92.44z"/>
		<path class="st1" d="M190.39,4.94c38.68,20.75,65.92,51.49,85.75,89.33c-0.31,0.29-0.61,0.58-0.92,0.87
			c-1.97-2.41-3.92-4.83-5.93-7.21c-2.15-2.54-4.3-5.07-6.53-7.54c-20.07-22.15-43.87-39.12-71.37-50.75
			c-4.46-1.89-5.66-3.78-4.26-8.41C188.65,16.19,189.25,10.87,190.39,4.94z"/>
		<path class="st1" d="M194.41,431.27c0.12-5.68-0.31-12.34,0.63-18.96c2.25-15.98,17.51-27.45,33.49-25.31
			c1.93,0.26,2.6,1.02,2.5,2.82c-0.06,1.16-0.02,2.33-0.04,3.49c-0.06,3.32,0.93,7.2-0.46,9.81c-1.52,2.85-5.77,0.75-8.79,1.4
			c-5.94,1.27-9.14,4.22-9.86,10.25c-1.28,10.77-0.52,21.59-0.47,32.39c0.02,3.85-1.16,4.7-4.78,4.67
			c-12.23-0.1-12.23,0.03-12.23-12.13C194.41,437.22,194.41,434.73,194.41,431.27z"/>
		<path class="st1" d="M197.92,245.66c-6.48,7.82-13.52,14.91-18.69,23.5c-7.39,12.28-10.85,25.39-7.79,39.62
			c1.05,4.9,3.84,9.29,5.77,14.03c-5.27-4.37-9.03-9.77-11.3-16.16c-4.66-13.11-1.92-25.21,5.2-36.67
			c6.18-9.94,14.99-17.29,24.03-24.42C195.83,245.03,196.65,244.9,197.92,245.66z"/>
		<path class="st1" d="M274.99,103.33c0.24,0.17,0.48,0.34,0.72,0.52c-0.13,0.09-0.34,0.29-0.37,0.26
			c-0.22-0.16-0.39-0.38-0.58-0.57C274.74,103.53,274.99,103.33,274.99,103.33z"/>
	</g>
</g>
<g id="Designed_By_Freepik">
</g>
</svg>
